<svg width="18" height="18" viewBox="0 0 18 18" fill="none" xmlns="http://www.w3.org/2000/svg">
<path opacity="0.4" d="M9 16.5C13.1421 16.5 16.5 13.1421 16.5 9C16.5 4.85786 13.1421 1.5 9 1.5C4.85786 1.5 1.5 4.85786 1.5 9C1.5 13.1421 4.85786 16.5 9 16.5Z" fill="#FFF081"/>
<path d="M6.51002 8.93248L7.74752 9.24001L7.03503 12.12C6.87003 12.795 7.20002 13.02 7.77002 12.6225L11.655 9.92999C12.1275 9.59999 12.06 9.21748 11.4975 9.07498L10.26 8.7675L10.9725 5.88748C11.1375 5.21248 10.8075 4.98749 10.2375 5.38499L6.35253 8.07751C5.88003 8.40751 5.94752 8.78998 6.51002 8.93248Z" fill="#FFF081"/>
</svg>
