<svg width="18" height="18" viewBox="0 0 18 18" fill="none" xmlns="http://www.w3.org/2000/svg">
<path opacity="0.4" d="M16.5 6V12.1425C16.5 14.8725 14.8725 16.5 12.1425 16.5H5.8575C3.1275 16.5 1.5 14.8725 1.5 12.1425V6.0075L16.5 6Z" fill="#81FFB1"/>
<path d="M6.75021 13.3124C6.66771 13.3124 6.57771 13.2899 6.50271 13.2524C5.92521 12.9599 5.43021 12.5249 5.07021 11.9849C4.77021 11.5349 4.77021 10.9574 5.07021 10.5074C5.43021 9.96744 5.92521 9.53244 6.50271 9.24744C6.78022 9.10494 7.11772 9.22494 7.26022 9.50244C7.40272 9.77994 7.29022 10.1174 7.00522 10.2599C6.60021 10.4624 6.25522 10.7699 6.00771 11.1449C5.96272 11.2124 5.96272 11.3024 6.00771 11.3774C6.25522 11.7524 6.60021 12.0599 7.00522 12.2624C7.28272 12.4049 7.39522 12.7424 7.26022 13.0199C7.15522 13.1999 6.95271 13.3124 6.75021 13.3124Z" fill="#81FFB1"/>
<path d="M11.4074 13.3124C11.1974 13.3124 11.0024 13.1999 10.9049 13.0049C10.7624 12.7274 10.8749 12.3899 11.1599 12.2474C11.5649 12.0449 11.9099 11.7374 12.1574 11.3624C12.2024 11.2949 12.2024 11.2049 12.1574 11.1299C11.9099 10.7549 11.5649 10.4474 11.1599 10.2449C10.8824 10.1024 10.7699 9.76494 10.9049 9.48744C11.0474 9.20994 11.3849 9.09744 11.6624 9.23244C12.2399 9.52494 12.7349 9.95994 13.0949 10.4999C13.3949 10.9499 13.3949 11.5274 13.0949 11.9774C12.7349 12.5174 12.2399 12.9524 11.6624 13.2374C11.5724 13.2899 11.4899 13.3124 11.4074 13.3124Z" fill="#81FFB1"/>
<path d="M16.5 5.8575V6L1.5 6.0075V5.8575C1.5 3.1275 3.1275 1.5 5.8575 1.5H12.1425C14.8725 1.5 16.5 3.1275 16.5 5.8575Z" fill="#81FFB1"/>
</svg>
