<svg width="18" height="18" viewBox="0 0 18 18" fill="none" xmlns="http://www.w3.org/2000/svg">
<path opacity="0.4" d="M12.375 8.24992L5.625 8.24992C5.2125 8.24992 4.875 7.91242 4.875 7.49992L4.875 5.62492C4.875 4.48492 5.34 3.45742 6.0825 2.70742C6.795 2.00242 7.7625 1.54492 8.835 1.49992C11.19 1.40992 13.125 3.46492 13.125 5.82742L13.125 7.49992C13.125 7.91242 12.7875 8.24992 12.375 8.24992Z" fill="#485250"/>
<path opacity="0.4" d="M9.165 16.4998C6.8025 16.5973 4.875 14.5423 4.875 12.1798L4.875 10.5073C4.875 10.0948 5.2125 9.75732 5.625 9.75732L12.375 9.75732C12.7875 9.75732 13.125 10.0948 13.125 10.5073L13.125 12.3823C13.125 13.5223 12.66 14.5498 11.9175 15.2998C11.205 15.9973 10.2375 16.4548 9.165 16.4998Z" fill="#485250"/>
<path d="M8.4375 12L8.4375 6C8.4375 5.6925 8.6925 5.4375 9 5.4375C9.3075 5.4375 9.5625 5.6925 9.5625 6L9.5625 12C9.5625 12.3075 9.3075 12.5625 9 12.5625C8.6925 12.5625 8.4375 12.3075 8.4375 12Z" fill="#485250"/>
</svg>
