<svg width="22" height="22" viewBox="0 0 22 22" fill="none" xmlns="http://www.w3.org/2000/svg">
<rect width="22" height="22" rx="4" fill="#222928"/>
<path opacity="0.4" d="M7.83331 17.6667H10.8333C13.3333 17.6667 14.3333 16.6667 14.3333 14.1667V11.1667C14.3333 8.66666 13.3333 7.66666 10.8333 7.66666H7.83331C5.33331 7.66666 4.33331 8.66666 4.33331 11.1667V14.1667C4.33331 16.6667 5.33331 17.6667 7.83331 17.6667Z" fill="white"/>
<path d="M17.1666 10C16.8933 10 16.6666 9.77334 16.6666 9.5C16.6666 7.52667 15.2933 5.87334 13.4466 5.44L13.6266 5.74C13.7666 5.98 13.6933 6.28667 13.4533 6.42667C13.2133 6.56667 12.9066 6.49334 12.7666 6.25334L12.0666 5.08667C11.9733 4.93334 11.9733 4.74 12.06 4.58667C12.1533 4.43334 12.32 4.33334 12.5 4.33334C15.3466 4.33334 17.6666 6.65334 17.6666 9.5C17.6666 9.77334 17.44 10 17.1666 10Z" fill="white"/>
</svg>
