<svg width="22" height="22" viewBox="0 0 22 22" fill="none" xmlns="http://www.w3.org/2000/svg">
<path opacity="0.4" d="M11 20.1667C15.3893 20.1667 18.9475 16.6085 18.9475 12.2192C18.9475 7.82988 15.3893 4.27167 11 4.27167C6.61072 4.27167 3.0525 7.82988 3.0525 12.2192C3.0525 16.6085 6.61072 20.1667 11 20.1667Z" fill="white"/>
<path d="M11 12.6042C10.6242 12.6042 10.3125 12.2925 10.3125 11.9167V7.33334C10.3125 6.95751 10.6242 6.64584 11 6.64584C11.3758 6.64584 11.6875 6.95751 11.6875 7.33334V11.9167C11.6875 12.2925 11.3758 12.6042 11 12.6042Z" fill="white"/>
<path d="M13.6492 3.16251H8.35083C7.98417 3.16251 7.69083 2.86918 7.69083 2.50251C7.69083 2.13584 7.98417 1.83334 8.35083 1.83334H13.6492C14.0158 1.83334 14.3092 2.12668 14.3092 2.49334C14.3092 2.86001 14.0158 3.16251 13.6492 3.16251Z" fill="white"/>
</svg>
