<svg width="18" height="19" viewBox="0 0 18 19" fill="none" xmlns="http://www.w3.org/2000/svg">
<path d="M15.8025 4.4225C14.595 4.3025 13.3875 4.2125 12.1725 4.145V4.1375L12.0075 3.1625C11.895 2.4725 11.73 1.4375 9.975 1.4375H8.01C6.2625 1.4375 6.0975 2.4275 5.9775 3.155L5.82 4.115C5.1225 4.16 4.425 4.205 3.7275 4.2725L2.1975 4.4225C1.8825 4.4525 1.6575 4.73 1.6875 5.0375C1.7175 5.345 1.9875 5.57 2.3025 5.54L3.8325 5.39C7.7625 5 11.7225 5.15 15.6975 5.5475C15.72 5.5475 15.735 5.5475 15.7575 5.5475C16.0425 5.5475 16.29 5.33 16.32 5.0375C16.3425 4.73 16.1175 4.4525 15.8025 4.4225Z" fill="#664E4E"/>
<path opacity="0.3991" d="M14.4226 6.605C14.2426 6.4175 13.9951 6.3125 13.7401 6.3125H4.26006C4.00506 6.3125 3.75006 6.4175 3.57756 6.605C3.40506 6.7925 3.30756 7.0475 3.32256 7.31L3.78756 15.005C3.87006 16.145 3.97506 17.57 6.59256 17.57H11.4076C14.0251 17.57 14.1301 16.1525 14.2126 15.005L14.6776 7.3175C14.6926 7.0475 14.5951 6.7925 14.4226 6.605Z" fill="#664E4E"/>
<path fill-rule="evenodd" clip-rule="evenodd" d="M7.18506 13.25C7.18506 12.9393 7.4369 12.6875 7.74756 12.6875H10.2451C10.5557 12.6875 10.8076 12.9393 10.8076 13.25C10.8076 13.5607 10.5557 13.8125 10.2451 13.8125H7.74756C7.4369 13.8125 7.18506 13.5607 7.18506 13.25Z" fill="#664E4E"/>
<path fill-rule="evenodd" clip-rule="evenodd" d="M6.5625 10.25C6.5625 9.93934 6.81434 9.6875 7.125 9.6875H10.875C11.1857 9.6875 11.4375 9.93934 11.4375 10.25C11.4375 10.5607 11.1857 10.8125 10.875 10.8125H7.125C6.81434 10.8125 6.5625 10.5607 6.5625 10.25Z" fill="#664E4E"/>
</svg>
