<svg width="34" height="34" viewBox="0 0 34 34" fill="none" xmlns="http://www.w3.org/2000/svg">
<path d="M17 33.5C26.1127 33.5 33.5 26.1127 33.5 17C33.5 7.88731 26.1127 0.5 17 0.5C7.88729 0.5 0.5 7.88731 0.5 17C0.5 26.1127 7.88729 33.5 17 33.5Z" stroke="url(#paint0_linear_268_3209)"/>
<g clip-path="url(#clip0_268_3209)">
<rect x="1" y="1" width="32" height="32" rx="16" fill="url(#paint1_linear_268_3209)"/>
<g filter="url(#filter0_f_268_3209)">
<circle cx="26.5" cy="26.5" r="10.5" fill="url(#paint2_linear_268_3209)"/>
</g>
<path d="M11.9818 18.1957H14.6063V24.9217C14.6063 25.912 15.7275 26.379 16.3221 25.6317L22.7518 17.5979C23.3124 16.8972 22.8622 15.8043 22.0128 15.8043H19.3883V9.07826C19.3883 8.08804 18.2671 7.62096 17.6726 8.36829L11.2428 16.4021C10.6907 17.1028 11.1409 18.1957 11.9818 18.1957Z" fill="url(#paint3_linear_268_3209)"/>
<g style="mix-blend-mode:lighten">
<path d="M11.9818 18.1957H14.6063V24.9217C14.6063 25.912 15.7275 26.379 16.3221 25.6317L22.7518 17.5979C23.3124 16.8972 22.8622 15.8043 22.0128 15.8043H19.3883V9.07826C19.3883 8.08804 18.2671 7.62096 17.6726 8.36829L11.2428 16.4021C10.6907 17.1028 11.1409 18.1957 11.9818 18.1957Z" fill="url(#paint4_linear_268_3209)"/>
</g>
</g>
<defs>
<filter id="filter0_f_268_3209" x="3" y="3" width="47" height="47" filterUnits="userSpaceOnUse" color-interpolation-filters="sRGB">
<feFlood flood-opacity="0" result="BackgroundImageFix"/>
<feBlend mode="normal" in="SourceGraphic" in2="BackgroundImageFix" result="shape"/>
<feGaussianBlur stdDeviation="6.5" result="effect1_foregroundBlur_268_3209"/>
</filter>
<linearGradient id="paint0_linear_268_3209" x1="6.33333" y1="2.77778" x2="27.6667" y2="31.2222" gradientUnits="userSpaceOnUse">
<stop stop-color="#4DFFC6" stop-opacity="0.02"/>
<stop offset="0.72" stop-color="#4DFFC6" stop-opacity="0.2"/>
<stop offset="1" stop-color="#4DFFC6"/>
</linearGradient>
<linearGradient id="paint1_linear_268_3209" x1="1" y1="1" x2="33" y2="33" gradientUnits="userSpaceOnUse">
<stop stop-color="#4CFBC3" stop-opacity="0.03"/>
<stop offset="1" stop-color="#4CFBC3" stop-opacity="0"/>
</linearGradient>
<linearGradient id="paint2_linear_268_3209" x1="14.3421" y1="15.4474" x2="31.4737" y2="29.8158" gradientUnits="userSpaceOnUse">
<stop stop-color="#4CFBC3" stop-opacity="0"/>
<stop offset="1" stop-color="#4CFBC3"/>
</linearGradient>
<linearGradient id="paint3_linear_268_3209" x1="14" y1="12" x2="21" y2="24" gradientUnits="userSpaceOnUse">
<stop stop-color="#125842"/>
<stop offset="1" stop-color="#4DFFC6"/>
</linearGradient>
<linearGradient id="paint4_linear_268_3209" x1="14" y1="12" x2="20" y2="22" gradientUnits="userSpaceOnUse">
<stop offset="0.261715" stop-color="#80FFD6" stop-opacity="0"/>
<stop offset="1" stop-color="#80FFD6"/>
</linearGradient>
<clipPath id="clip0_268_3209">
<rect x="1" y="1" width="32" height="32" rx="16" fill="white"/>
</clipPath>
</defs>
</svg>
